<svg id="Layer_1" data-name="Layer 1" xmlns="http://www.w3.org/2000/svg" viewBox="0 0 1920 1400"><defs><style>.cls-1{fill:none;stroke:#71c659;stroke-linecap:round;stroke-linejoin:round;opacity:0.15;}</style></defs><title>TesBG</title><polyline class="cls-1" points="45.47 128.05 132.4 131.89 280.79 52.55"/><polygon class="cls-1" points="55.08 299.47 298.35 259.05 95.06 417.73 55.08 299.47"/><polygon class="cls-1" points="45.47 128.05 55.08 299.47 132.4 131.89 45.47 128.05"/><polygon class="cls-1" points="95.06 417.73 670.82 334.84 298.35 259.05 95.06 417.73"/><polygon class="cls-1" points="298.35 259.05 132.4 131.89 55.08 299.47 298.35 259.05"/><polyline class="cls-1" points="55.08 778.57 94.96 417.37 55.08 299.47"/><polygon class="cls-1" points="280.79 52.55 461.48 131.89 674.06 67.3 280.79 52.55"/><polygon class="cls-1" points="298.35 259.05 461.48 131.89 132.4 131.89 298.35 259.05"/><polygon class="cls-1" points="280.79 52.55 132.4 131.89 461.48 131.89 280.79 52.55"/><polygon class="cls-1" points="55.08 778.57 482.23 692.73 95.06 417.73 55.08 778.57"/><polygon class="cls-1" points="670.82 334.84 482.23 692.73 95.06 417.73 670.82 334.84"/><polygon class="cls-1" points="461.48 131.89 670.82 334.84 298.35 259.05 461.48 131.89"/><polygon class="cls-1" points="674.06 67.3 1305.41 53.79 461.48 131.89 674.06 67.3"/><polygon class="cls-1" points="670.82 334.84 1305.41 53.79 461.48 131.89 670.82 334.84"/><polygon class="cls-1" points="482.23 692.73 1305.41 53.79 670.82 334.84 482.23 692.73"/><polyline class="cls-1" points="54.12 779.44 53.64 968.54 261.09 908.76 702.39 968.54 1061.63 908.65 1025.13 796.71"/><line class="cls-1" x1="54.12" y1="968.97" x2="481.27" y2="693.6"/><polygon class="cls-1" points="482.23 692.73 702.88 968.1 261.58 908.51 482.23 692.73"/><polyline class="cls-1" points="674.06 67.3 1305.41 53.79 1864.56 69.91"/><polyline class="cls-1" points="1865.52 303.68 1839.82 142.23 1864.56 69.91"/><polygon class="cls-1" points="1865.52 552.94 1775.94 469.57 1865.52 303.68 1865.52 552.94"/><polyline class="cls-1" points="1865.52 968.1 1026.3 795.47 702.88 968.1"/><polyline class="cls-1" points="1865.52 552.94 1793.86 819.05 1865.52 968.1"/><polygon class="cls-1" points="1026.3 795.47 1793.86 819.05 1865.52 968.1 1026.3 795.47"/><polygon class="cls-1" points="1305.41 53.79 1865.52 303.68 1840.03 142.65 1305.41 53.79"/><polygon class="cls-1" points="482.23 692.73 1026.3 795.47 702.88 968.1 482.23 692.73"/><polygon class="cls-1" points="1305.41 53.79 1445.91 613.57 482.23 692.73 1305.41 53.79"/><polygon class="cls-1" points="1026.3 795.47 1445.91 613.57 482.23 692.73 1026.3 795.47"/><polygon class="cls-1" points="1793.86 819.05 1445.91 613.57 1026.3 795.47 1793.86 819.05"/><polygon class="cls-1" points="1775.94 469.57 1793.86 819.05 1865.52 552.94 1775.94 469.57"/><polygon class="cls-1" points="1865.52 303.68 1305.41 53.79 1775.94 469.57 1865.52 303.68"/><polygon class="cls-1" points="1793.86 819.05 1775.94 469.57 1445.91 613.57 1793.86 819.05"/><polygon class="cls-1" points="1305.41 53.79 1445.91 613.57 1775.94 469.57 1305.41 53.79"/><polygon class="cls-1" points="261.11 907.89 481.76 692.31 54.6 967.68 261.11 907.89"/><polygon class="cls-1" points="1304.94 53.37 1839.56 142.23 1864.09 69.49 1304.94 53.37"/><line class="cls-1" x1="1062.59" y1="907.79" x2="1865.52" y2="967.66"/><line class="cls-1" x1="45.48" y1="127.63" x2="280.79" y2="52.13"/></svg>